# xmcd CD database file
#
# Track frame offsets:
#	150
#	28519
#	55059
#	85406
#	110481
#	150838
#	185108
#	216115
#	248160
#	256089
#
# Disc length: 3782 seconds
#
# Revision: 0
# Processed by: cddbd v1.5.2PL0 Copyright (c) Steve Scherf et al.
# Submitted via: CDex 1.51
#
DISCID=7c0ec40a
DTITLE=Monty Alexander - Uplift
DYEAR=2011
DGENRE=Jazz
TTITLE0=Come Fly With Me
TTITLE1=One Mint Julip
TTITLE2=Renewal
TTITLE3=Sweet Georgia Brown
TTITLE4=I Just Can't See For Looking
TTITLE5=Django
TTITLE6=Body and Soul
TTITLE7=Hope
TTITLE8=Home
TTITLE9=Fungii Mama
EXTD=YEAR: 2011
EXTT0=
EXTT1=
EXTT2=
EXTT3=
EXTT4=
EXTT5=
EXTT6=
EXTT7=
EXTT8=
EXTT9=
PLAYORDER=
